<svg width="58" height="64" viewBox="0 0 58 64" fill="none" xmlns="http://www.w3.org/2000/svg">
<path d="M29.105 47.036C29.105 44.649 28.1568 42.3599 26.469 40.672C24.7811 38.9842 22.4919 38.036 20.105 38.036L19.172 38.03C18.7459 38.0275 18.3301 37.899 17.9768 37.6608C17.6236 37.4225 17.3487 37.0851 17.1868 36.691C17.0248 36.2969 16.983 35.8637 17.0667 35.4459C17.1504 35.0281 17.3558 34.6444 17.657 34.343L21.242 30.758C22.367 29.6327 23.8928 29.0003 25.484 29H29C30.5913 29 32.1174 28.3679 33.2426 27.2426C34.3679 26.1174 35 24.5913 35 23C35 21.4087 34.3679 19.8826 33.2426 18.7574C32.1174 17.6321 30.5913 17 29 17H20.729C19.5467 16.9999 18.3759 17.2327 17.2836 17.6851C16.1913 18.1376 15.1989 18.8009 14.363 19.637L6.242 27.758C3.52631 30.4748 2.00052 34.1587 2 38C2 44.3652 4.52856 50.4697 9.02944 54.9706C13.5303 59.4714 19.6348 62 26 62H32C38.3652 62 44.4697 59.4714 48.9706 54.9706C53.4714 50.4697 56 44.3652 56 38V17C56 15.4087 55.3679 13.8826 54.2426 12.7574C53.1174 11.6321 51.5913 11 50 11C48.4087 11 46.8826 11.6321 45.7574 12.7574C44.6321 13.8826 44 15.4087 44 17V23C44 24.5913 44.6321 26.1174 45.7574 27.2426C46.8826 28.3679 48.4087 29 50 29C51.5913 29 53.1174 28.3679 54.2426 27.2426C55.3679 26.1174 56 24.5913 56 23M34.664 24.986C35.5672 25.5902 36.6176 25.9378 37.703 25.9916C38.7884 26.0453 39.868 25.8034 40.8265 25.2914C41.7851 24.7795 42.5866 24.0168 43.1455 23.0849C43.7045 22.1529 43.9998 21.0867 44 20V11C44 9.4087 43.3679 7.88258 42.2426 6.75736C41.1174 5.63214 39.5913 5 38 5C36.4087 5 34.8826 5.63214 33.7574 6.75736C32.6321 7.88258 32 9.4087 32 11M20 11C20 9.4087 19.3679 7.88258 18.2426 6.75736C17.1174 5.63214 15.5913 5 14 5C12.4087 5 10.8826 5.63214 9.75736 6.75736C8.63214 7.88258 8 9.4087 8 11V26M20 17V8C20 6.4087 20.6321 4.88258 21.7574 3.75736C22.8826 2.63214 24.4087 2 26 2C27.5913 2 29.1174 2.63214 30.2426 3.75736C31.3679 4.88258 32 6.4087 32 8V17.804" stroke="#081C15" stroke-width="4" stroke-linecap="round" stroke-linejoin="round"/>
</svg>
