<svg width="66" height="58" viewBox="0 0 66 58" fill="none" xmlns="http://www.w3.org/2000/svg">
<path d="M23.4007 54.4712V42.1712L29.1007 42.7712C30.7601 42.679 32.3305 41.9909 33.5232 40.8335C34.7158 39.6761 35.4507 38.1271 35.5927 36.4712V19.3712C35.6126 15.0492 33.9147 10.8964 30.8727 7.82619C27.8307 4.75604 23.6936 3.02006 19.3717 3.00017C15.0497 2.98028 10.8969 4.6781 7.82669 7.72013C4.75653 10.7622 3.02056 14.8992 3.00067 19.2212C3.00067 27.6212 4.96867 28.3832 6.00067 32.8712C6.69812 35.5816 6.72797 38.4207 6.08767 41.1452L3.00067 54.4712M56.4007 47.8712C60.6181 43.6532 62.9882 37.9333 62.9899 31.9685C62.9916 26.0038 60.6247 20.2825 56.4097 16.0622M48.0007 39.4712C48.9822 38.4899 49.7594 37.3237 50.2874 36.0401C50.8154 34.7565 51.0837 33.381 51.0767 31.993C51.0697 30.6051 50.7876 29.2323 50.2468 27.9541C49.7059 26.6759 48.917 25.5176 47.9257 24.5462" stroke="black" stroke-width="6" stroke-linecap="round" stroke-linejoin="round"/>
</svg>
