<svg width="19" height="14" viewBox="0 0 19 14" fill="none" xmlns="http://www.w3.org/2000/svg">
<path d="M1.05222 7.13843C0.982593 6.95085 0.982593 6.74452 1.05222 6.55695C1.73036 4.91265 2.88147 3.50673 4.35961 2.51743C5.83774 1.52813 7.57635 1 9.355 1C11.1337 1 12.8723 1.52813 14.3504 2.51743C15.8285 3.50673 16.9796 4.91265 17.6578 6.55695C17.7274 6.74452 17.7274 6.95085 17.6578 7.13843C16.9796 8.78273 15.8285 10.1887 14.3504 11.178C12.8723 12.1673 11.1337 12.6954 9.355 12.6954C7.57635 12.6954 5.83774 12.1673 4.35961 11.178C2.88147 10.1887 1.73036 8.78273 1.05222 7.13843Z" stroke="#1B4332" stroke-width="2" stroke-linecap="round" stroke-linejoin="round"/>
<path d="M9.355 9.35406C10.7392 9.35406 11.8614 8.23192 11.8614 6.84769C11.8614 5.46346 10.7392 4.34132 9.355 4.34132C7.97077 4.34132 6.84863 5.46346 6.84863 6.84769C6.84863 8.23192 7.97077 9.35406 9.355 9.35406Z" stroke="#1B4332" stroke-width="2" stroke-linecap="round" stroke-linejoin="round"/>
</svg>
