<svg width="12" height="15" viewBox="0 0 12 15" fill="none" xmlns="http://www.w3.org/2000/svg">
<path d="M9.355 1C9.72431 1 10.0785 1.14671 10.3396 1.40785C10.6008 1.669 10.7475 2.02319 10.7475 2.3925V12.8362C10.7475 12.9582 10.7154 13.078 10.6545 13.1836C10.5937 13.2892 10.5061 13.3771 10.4007 13.4382C10.2952 13.4994 10.1755 13.5319 10.0536 13.5323C9.93168 13.5327 9.81178 13.5011 9.70591 13.4406L6.56443 11.6457C6.35407 11.5255 6.11601 11.4623 5.87375 11.4623C5.63149 11.4623 5.39343 11.5255 5.18307 11.6457L2.04159 13.4406C1.93572 13.5011 1.81582 13.5327 1.6939 13.5323C1.57197 13.5319 1.45229 13.4994 1.34683 13.4382C1.24137 13.3771 1.15383 13.2892 1.09296 13.1836C1.0321 13.078 1.00004 12.9582 1 12.8362V2.3925C1 2.02319 1.14671 1.669 1.40785 1.40785C1.669 1.14671 2.02319 1 2.3925 1H9.355Z" stroke="#1B4332" stroke-width="2" stroke-linecap="round" stroke-linejoin="round"/>
</svg>
