<svg width="64" height="64" viewBox="0 0 64 64" fill="none" xmlns="http://www.w3.org/2000/svg">
<path d="M37.3252 10.6667C38.2874 10.6667 39.2316 10.927 40.0578 11.4199C40.884 11.9128 41.5616 12.6201 42.0186 13.4667L43.3146 15.8667C43.7716 16.7134 44.4491 17.4207 45.2753 17.9136C46.1016 18.4065 47.0458 18.6668 48.0079 18.6667H53.3332C54.7477 18.6667 56.1043 19.2287 57.1045 20.2288C58.1047 21.229 58.6666 22.5856 58.6666 24.0001V48.0001C58.6666 49.4146 58.1047 50.7711 57.1045 51.7713C56.1043 52.7715 54.7477 53.3334 53.3332 53.3334H10.6666C9.2521 53.3334 7.89554 52.7715 6.89535 51.7713C5.89515 50.7711 5.33325 49.4146 5.33325 48.0001V24.0001C5.33325 22.5856 5.89515 21.229 6.89535 20.2288C7.89554 19.2287 9.2521 18.6667 10.6666 18.6667H15.9919C16.953 18.6668 17.8963 18.4071 18.722 17.9152C19.5477 17.4233 20.2251 16.7173 20.6826 15.8721L21.9866 13.4614C22.4441 12.6162 23.1215 11.9102 23.9472 11.4183C24.7728 10.9264 25.7161 10.6667 26.6772 10.6667H37.3252Z" stroke="white" stroke-width="5" stroke-linecap="round" stroke-linejoin="round"/>
<path d="M31.9999 42.6668C36.4182 42.6668 39.9999 39.085 39.9999 34.6668C39.9999 30.2485 36.4182 26.6667 31.9999 26.6667C27.5816 26.6667 23.9999 30.2485 23.9999 34.6668C23.9999 39.085 27.5816 42.6668 31.9999 42.6668Z" stroke="white" stroke-width="5" stroke-linecap="round" stroke-linejoin="round"/>
</svg>
