<svg width="15" height="19" viewBox="0 0 15 19" fill="none" xmlns="http://www.w3.org/2000/svg">
<path d="M7.1579 1C7.74436 3.34586 8.91729 5.25188 10.6767 6.71805C12.4361 8.18421 13.3158 9.79699 13.3158 11.5564C13.3158 13.1896 12.667 14.7559 11.5122 15.9107C10.3574 17.0655 8.79107 17.7143 7.1579 17.7143C5.52472 17.7143 3.95843 17.0655 2.80361 15.9107C1.64878 14.7559 1 13.1896 1 11.5564C1 10.6047 1.30868 9.67866 1.8797 8.91729C1.8797 9.50057 2.11141 10.06 2.52384 10.4724C2.93628 10.8848 3.49567 11.1165 4.07895 11.1165C4.66222 11.1165 5.22161 10.8848 5.63405 10.4724C6.04649 10.06 6.2782 9.50057 6.2782 8.91729C6.2782 7.1579 4.95865 6.2782 4.95865 4.5188C4.95865 3.34586 5.69173 2.17293 7.1579 1Z" stroke="#1B4332" stroke-width="2" stroke-linecap="round" stroke-linejoin="round"/>
</svg>
