<svg width="64" height="64" viewBox="0 0 64 64" fill="none" xmlns="http://www.w3.org/2000/svg">
<path d="M32.0001 34.6666V56M32.0001 34.6666L21.3334 45.3333M32.0001 34.6666L42.6668 45.3333M10.6668 39.7306C8.68553 37.7064 7.19094 35.2579 6.29618 32.5705C5.40143 29.8831 5.12997 27.0273 5.50239 24.2194C5.8748 21.4116 6.88131 18.7253 8.44568 16.3641C10.01 14.0028 12.0912 12.0285 14.5316 10.5908C16.972 9.15301 19.7076 8.28945 22.5312 8.06551C25.3548 7.84158 28.1923 8.26314 30.8288 9.29827C33.4653 10.3334 35.8317 11.9549 37.7487 14.0401C39.6657 16.1252 41.0831 18.6193 41.8934 21.3333H46.6668C49.2415 21.333 51.748 22.1608 53.8161 23.6945C55.8842 25.2281 57.4041 27.3863 58.1515 29.8501C58.8988 32.314 58.8339 34.9529 57.9663 37.377C57.0987 39.8011 55.4744 41.8819 53.3334 43.312" stroke="white" stroke-width="5" stroke-linecap="round" stroke-linejoin="round"/>
</svg>
