<svg width="19" height="19" viewBox="0 0 19 19" fill="none" xmlns="http://www.w3.org/2000/svg">
<path d="M17.71 12.14L14.8452 9.27516C14.497 8.92709 14.0248 8.73156 13.5325 8.73156C13.0402 8.73156 12.568 8.92709 12.2198 9.27516L3.785 17.71M2.85667 1H15.8533C16.8787 1 17.71 1.83126 17.71 2.85667V15.8533C17.71 16.8787 16.8787 17.71 15.8533 17.71H2.85667C1.83126 17.71 1 16.8787 1 15.8533V2.85667C1 1.83126 1.83126 1 2.85667 1ZM8.42667 6.57C8.42667 7.59541 7.59541 8.42667 6.57 8.42667C5.54459 8.42667 4.71333 7.59541 4.71333 6.57C4.71333 5.54459 5.54459 4.71333 6.57 4.71333C7.59541 4.71333 8.42667 5.54459 8.42667 6.57Z" stroke="#081C15" stroke-width="2" stroke-linecap="round" stroke-linejoin="round"/>
</svg>
