<svg width="18" height="19" viewBox="0 0 18 19" fill="none" xmlns="http://www.w3.org/2000/svg">
<path d="M14.368 4.342V16.039C14.368 16.4822 14.1919 16.9072 13.8786 17.2206C13.5652 17.5339 13.1402 17.71 12.697 17.71H4.342C3.89882 17.71 3.4738 17.5339 3.16042 17.2206C2.84705 16.9072 2.671 16.4822 2.671 16.039V4.342M1 4.342H16.039M5.1775 4.342V2.671C5.1775 2.22782 5.35355 1.8028 5.66692 1.48942C5.9803 1.17605 6.40532 1 6.8485 1H10.1905C10.6337 1 11.0587 1.17605 11.3721 1.48942C11.6854 1.8028 11.8615 2.22782 11.8615 2.671V4.342" stroke="#1B4332" stroke-width="2" stroke-linecap="round" stroke-linejoin="round"/>
</svg>
