<svg width="17" height="19" viewBox="0 0 17 19" fill="none" xmlns="http://www.w3.org/2000/svg">
<path d="M8.28728 17.71V15.0716M12.6846 10.6742L15.3231 13.5765C15.4436 13.6994 15.5254 13.855 15.5583 14.024C15.5912 14.1929 15.5739 14.3679 15.5083 14.5271C15.4428 14.6862 15.3319 14.8227 15.1896 14.9195C15.0472 15.0163 14.8796 15.0692 14.7074 15.0716H1.86712C1.69498 15.0692 1.52734 15.0163 1.38498 14.9195C1.24262 14.8227 1.13179 14.6862 1.06624 14.5271C1.0007 14.3679 0.98331 14.1929 1.01624 14.024C1.04917 13.855 1.13097 13.6994 1.25149 13.5765L3.88991 10.6742H3.62607C3.45393 10.6718 3.28629 10.6189 3.14393 10.5221C3.00156 10.4253 2.89074 10.2889 2.82519 10.1297C2.75964 9.9705 2.74226 9.79557 2.77519 9.6266C2.80812 9.45762 2.88991 9.30203 3.01044 9.1791L5.64886 6.27684H5.47296C5.29333 6.29305 5.11306 6.25363 4.95658 6.16393C4.8001 6.07424 4.67498 5.9386 4.59818 5.7754C4.52139 5.61221 4.49662 5.42934 4.52724 5.2516C4.55787 5.07385 4.6424 4.90982 4.76938 4.78174L8.28728 1L11.8052 4.78174C11.9322 4.90982 12.0167 5.07385 12.0473 5.2516C12.0779 5.42934 12.0532 5.61221 11.9764 5.7754C11.8996 5.9386 11.7745 6.07424 11.618 6.16393C11.4615 6.25363 11.2812 6.29305 11.1016 6.27684H10.9257L13.5641 9.1791C13.6846 9.30203 13.7664 9.45762 13.7994 9.6266C13.8323 9.79557 13.8149 9.9705 13.7494 10.1297C13.6838 10.2889 13.573 10.4253 13.4306 10.5221C13.2883 10.6189 13.1206 10.6718 12.9485 10.6742H12.6846Z" stroke="#1B4332" stroke-width="2" stroke-linecap="round" stroke-linejoin="round"/>
</svg>
