<svg width="19" height="16" viewBox="0 0 19 16" fill="none" xmlns="http://www.w3.org/2000/svg">
<path d="M11.026 12.697V2.671C11.026 2.22782 10.8499 1.8028 10.5366 1.48942C10.2232 1.17605 9.79818 1 9.355 1H2.671C2.22782 1 1.8028 1.17605 1.48942 1.48942C1.17605 1.8028 1 2.22782 1 2.671V11.8615C1 12.0831 1.08803 12.2956 1.24471 12.4523C1.4014 12.609 1.61391 12.697 1.8355 12.697H3.5065M3.5065 12.697C3.5065 13.6199 4.25463 14.368 5.1775 14.368C6.10037 14.368 6.8485 13.6199 6.8485 12.697M3.5065 12.697C3.5065 11.7741 4.25463 11.026 5.1775 11.026C6.10037 11.026 6.8485 11.7741 6.8485 12.697M11.8615 12.697H6.8485M11.8615 12.697C11.8615 13.6199 12.6096 14.368 13.5325 14.368C14.4554 14.368 15.2035 13.6199 15.2035 12.697M11.8615 12.697C11.8615 11.7741 12.6096 11.026 13.5325 11.026C14.4554 11.026 15.2035 11.7741 15.2035 12.697M15.2035 12.697H16.8745C17.0961 12.697 17.3086 12.609 17.4653 12.4523C17.622 12.2956 17.71 12.0831 17.71 11.8615V8.81192C17.7097 8.62232 17.6448 8.43847 17.5262 8.29057L14.6186 4.65615C14.5405 4.55829 14.4414 4.47926 14.3286 4.42488C14.2158 4.3705 14.0922 4.34218 13.967 4.342H11.026" stroke="#1B4332" stroke-width="2" stroke-linecap="round" stroke-linejoin="round"/>
</svg>
