<svg width="35" height="32" viewBox="0 0 35 32" fill="none" xmlns="http://www.w3.org/2000/svg">
<path d="M14.3 16H20.7M14.3 9.55556H20.7M20.7 30.5V25.6667C20.7 24.8121 20.3629 23.9925 19.7627 23.3882C19.1626 22.7839 18.3487 22.4444 17.5 22.4444C16.6513 22.4444 15.8374 22.7839 15.2373 23.3882C14.6371 23.9925 14.3 24.8121 14.3 25.6667V30.5M7.9 12.7778H4.7C3.85131 12.7778 3.03737 13.1173 2.43726 13.7215C1.83714 14.3258 1.5 15.1454 1.5 16V27.2778C1.5 28.1324 1.83714 28.9519 2.43726 29.5562C3.03737 30.1605 3.85131 30.5 4.7 30.5H30.3C31.1487 30.5 31.9626 30.1605 32.5627 29.5562C33.1629 28.9519 33.5 28.1324 33.5 27.2778V11.1667C33.5 10.3121 33.1629 9.4925 32.5627 8.88821C31.9626 8.28393 31.1487 7.94444 30.3 7.94444H27.1M7.9 30.5V4.72222C7.9 3.86764 8.23714 3.04805 8.83726 2.44377C9.43737 1.83948 10.2513 1.5 11.1 1.5H23.9C24.7487 1.5 25.5626 1.83948 26.1627 2.44377C26.7629 3.04805 27.1 3.86764 27.1 4.72222V30.5" stroke="#95D5B2" stroke-width="3" stroke-linecap="round" stroke-linejoin="round"/>
</svg>
