<svg width="57" height="72" viewBox="0 0 57 72" fill="none" xmlns="http://www.w3.org/2000/svg">
<path d="M0.0331911 0.0688705C4.75599 -0.0752194 10.1375 0.0506858 14.9178 0.0559204C15.144 10.5515 14.7563 21.3643 14.9348 31.8866C15.0212 36.9697 14.4659 43.6061 15.5237 48.4197C16.0796 50.9486 18.8441 54.1085 21.1678 55.3203C25.1968 57.4215 28.1639 57.3551 32.3764 56.1991C30.9245 58.3545 29.3142 60.919 27.7975 62.972C22.6132 62.918 18.0287 61.2838 14.3195 57.5666C11.9145 55.1727 10.2302 52.1515 9.45855 48.847C8.6994 45.5651 8.98633 37.0877 8.98633 33.3977L8.98647 6.00893C8.11947 6.02229 7.02297 5.80547 6.28462 6.0869C5.92109 6.462 6.03722 6.39974 6.01779 7.07583L6.02482 33.7726C6.02097 37.5394 5.762 45.9114 6.47637 49.2592C7.22133 52.7339 8.84666 55.9588 11.1967 58.6245C14.9559 62.899 20.2706 65.4896 25.953 65.8178C24.6981 67.6286 23.5066 69.5476 22.2596 71.3855C16.2697 69.961 12.1866 68.1657 7.7306 63.655C4.30968 60.1956 1.90055 55.8661 0.764238 51.1355C-0.155252 47.2782 0.00991427 43.7405 0.0140468 39.8119L0.023413 30.5325L0.0331911 0.0688705Z" fill="#40916C"/>
<path d="M40.4156 0.0606373L55.3465 0.0458984L55.3355 30.9944C53.119 29.4981 51.7691 28.9297 49.346 27.9518L49.3502 15.6152L49.346 6.0018L46.3871 6.00318L46.3747 27.1556C44.044 26.8177 42.7243 26.7846 40.4019 26.7915L40.4156 0.0606373Z" fill="#40916C"/>
<path d="M44.2591 47.3398C46.5362 48.3437 48.4895 48.7663 50.7431 50.0952C59.2534 55.115 57.1843 67.4088 48.247 70.6316C42.3761 72.7486 36.2062 72.3283 30.4826 69.9292C29.3641 69.4294 28.5775 68.9664 27.5168 68.3428C28.8957 66.1561 30.4234 63.9295 31.8601 61.7709C35.556 64.3996 40.6914 65.6507 45.0539 63.857C47.0224 63.0483 48.6892 60.684 47.5087 58.5881C46.0292 55.9582 42.2425 55.097 39.5536 54.2123C41.1088 52.0703 42.7232 49.5482 44.2591 47.3398Z" fill="#081C15"/>
<path d="M40.2397 29.3451C43.543 29.0843 47.0956 29.8132 50.1413 31.0771C48.8643 33.1206 47.1741 35.4842 45.798 37.5128C45.7484 37.4927 45.6974 37.4728 45.6464 37.4534C43.222 36.5208 39.7534 36.2627 37.3276 37.3111C35.395 38.1339 33.8026 40.4391 34.8495 42.5174C36.0259 44.8517 39.3429 45.6249 41.6558 46.406L39.6653 49.3222C38.7272 50.6666 37.8125 52.0259 36.9185 53.3997C31.363 51.545 26.5114 48.8686 26.2359 42.3788C25.8681 33.7405 32.5435 29.8491 40.2397 29.3451Z" fill="#081C15"/>
<path d="M52.3342 32.5205C53.2751 32.9493 54.6553 34.0839 55.4529 34.7471C54.709 35.9518 52.2805 40.1347 51.5559 41.0073C50.4842 40.1643 49.3491 39.4062 48.1603 38.7398C49.5241 36.9119 51.1069 34.4573 52.3342 32.5205Z" fill="#081C15"/>
</svg>
