<svg width="66" height="58" viewBox="0 0 66 58" fill="none" xmlns="http://www.w3.org/2000/svg">
<path d="M23.4006 54.4712V42.1712L29.1006 42.7712C30.76 42.679 32.3304 41.9909 33.5231 40.8335C34.7158 39.6761 35.4507 38.1271 35.5926 36.4712V19.3712C35.6125 15.0492 33.9147 10.8964 30.8727 7.82619C27.8306 4.75604 23.6936 3.02006 19.3716 3.00017C15.0496 2.98028 10.8968 4.6781 7.82663 7.72013C4.75647 10.7622 3.0205 14.8992 3.00061 19.2212C3.00061 27.6212 4.96861 28.3832 6.00061 32.8712C6.69806 35.5816 6.72791 38.4207 6.08761 41.1452L3.00061 54.4712M56.4006 47.8712C60.6181 43.6532 62.9881 37.9333 62.9898 31.9685C62.9915 26.0038 60.6247 20.2825 56.4096 16.0622M48.0006 39.4712C48.9821 38.4899 49.7594 37.3237 50.2873 36.0401C50.8153 34.7565 51.0836 33.381 51.0766 31.993C51.0696 30.6051 50.7876 29.2323 50.2467 27.9541C49.7059 26.6759 48.9169 25.5176 47.9256 24.5462" stroke="#2D6A4F" stroke-width="6" stroke-linecap="round" stroke-linejoin="round"/>
</svg>
