<svg width="18" height="19" viewBox="0 0 18 19" fill="none" xmlns="http://www.w3.org/2000/svg">
<path d="M11.8609 4.34173L4.83088 11.5155C4.51743 11.8289 4.34134 12.254 4.34134 12.6973C4.34134 13.1406 4.51743 13.5657 4.83088 13.8791C5.14432 14.1926 5.56944 14.3687 6.01271 14.3687C6.45599 14.3687 6.8811 14.1926 7.19455 13.8791L14.2246 6.7054C14.8513 6.07862 15.2035 5.22854 15.2035 4.34214C15.2035 3.45575 14.8513 2.60566 14.2246 1.97889C13.5978 1.35212 12.7477 1 11.8613 1C10.9749 1 10.1248 1.35212 9.49806 1.97889L2.49728 9.12338C2.02555 9.58749 1.65038 10.1404 1.3934 10.7502C1.13643 11.3601 1.00274 12.0147 1.00004 12.6765C0.997347 13.3383 1.1257 13.994 1.3777 14.6059C1.6297 15.2178 2.00036 15.7738 2.4683 16.2417C2.93624 16.7096 3.49219 17.0803 4.1041 17.3323C4.716 17.5843 5.37174 17.7127 6.0335 17.71C6.69526 17.7073 7.34993 17.5736 7.95976 17.3166C8.5696 17.0596 9.12251 16.6844 9.58662 16.2127L16.5874 9.06823" stroke="#081C15" stroke-width="2" stroke-linecap="round" stroke-linejoin="round"/>
</svg>
