<svg width="16" height="19" viewBox="0 0 16 19" fill="none" xmlns="http://www.w3.org/2000/svg">
<path d="M14.3682 7.68408C14.3682 11.8558 9.74027 16.2004 8.18622 17.5423C8.04145 17.6511 7.86522 17.71 7.68408 17.71C7.50295 17.71 7.32671 17.6511 7.18194 17.5423C5.62789 16.2004 1 11.8558 1 7.68408C1 5.91135 1.70421 4.21123 2.95772 2.95772C4.21123 1.70421 5.91135 1 7.68408 1C9.45681 1 11.1569 1.70421 12.4104 2.95772C13.664 4.21123 14.3682 5.91135 14.3682 7.68408Z" stroke="#081C15" stroke-width="2" stroke-linecap="round" stroke-linejoin="round"/>
<path d="M7.68408 10.1906C9.0684 10.1906 10.1906 9.0684 10.1906 7.68408C10.1906 6.29976 9.0684 5.17755 7.68408 5.17755C6.29976 5.17755 5.17755 6.29976 5.17755 7.68408C5.17755 9.0684 6.29976 10.1906 7.68408 10.1906Z" stroke="#081C15" stroke-width="2" stroke-linecap="round" stroke-linejoin="round"/>
</svg>
