<svg width="40" height="52" viewBox="0 0 40 52" fill="none" xmlns="http://www.w3.org/2000/svg">
<path d="M0.0236451 0.0490629C3.38813 -0.0535858 7.2219 0.0361082 10.6273 0.0398373C10.7884 7.5168 10.5123 15.2198 10.6395 22.7158C10.701 26.3369 10.3054 31.0647 11.059 34.4939C11.455 36.2954 13.4244 38.5465 15.0798 39.4098C17.95 40.9067 20.0638 40.8594 23.0647 40.0358C22.0304 41.5713 20.8832 43.3983 19.8027 44.8608C16.1095 44.8223 12.8435 43.6582 10.2011 41.01C8.48781 39.3046 7.28794 37.1523 6.7382 34.7983C6.19739 32.4602 6.4018 26.421 6.4018 23.7923L6.4019 4.28072C5.78425 4.29024 5.00311 4.13577 4.47712 4.33626C4.21814 4.60348 4.30087 4.55913 4.28703 5.04077L4.29204 24.0593C4.28929 26.7428 4.1048 32.7069 4.61372 35.0919C5.14442 37.5672 6.30229 39.8647 7.97644 41.7637C10.6545 44.8088 14.4407 46.6543 18.4887 46.8882C17.5947 48.1781 16.7459 49.5452 15.8576 50.8546C11.5904 49.8397 8.68163 48.5608 5.50722 45.3474C3.07019 42.8829 1.35394 39.7986 0.544437 36.4286C-0.1106 33.6806 0.00706285 31.1604 0.0100068 28.3617L0.0166792 21.7511L0.0236451 0.0490629Z" fill="white" fill-opacity="0.75"/>
<path d="M28.7918 0.0434588L39.4284 0.032959L39.4206 22.0804C37.8416 21.0145 36.8799 20.6096 35.1538 19.9129L35.1567 11.1244L35.1538 4.2759L33.0459 4.27688L33.037 19.3457C31.3766 19.105 30.4365 19.0814 28.782 19.0863L28.7918 0.0434588Z" fill="white" fill-opacity="0.75"/>
<path d="M31.5299 33.7246C33.152 34.4397 34.5435 34.7408 36.149 35.6875C42.2116 39.2636 40.7377 48.0216 34.3708 50.3175C30.1884 51.8256 25.793 51.5262 21.7156 49.8171C20.9187 49.4611 20.3584 49.1312 19.6028 48.687C20.5851 47.1292 21.6734 45.5429 22.6969 44.0052C25.3298 45.8779 28.9882 46.7691 32.0961 45.4913C33.4984 44.9152 34.6858 43.2309 33.8448 41.7378C32.7909 39.8643 30.0932 39.2508 28.1776 38.6205C29.2856 37.0945 30.4357 35.2978 31.5299 33.7246Z" fill="white" fill-opacity="0.85"/>
<path d="M28.6665 20.9051C31.0197 20.7193 33.5506 21.2386 35.7203 22.1389C34.8106 23.5948 33.6065 25.2786 32.6261 26.7237C32.5908 26.7094 32.5545 26.6952 32.5182 26.6814C30.7911 26.017 28.3201 25.8331 26.5919 26.58C25.2151 27.1662 24.0807 28.8084 24.8265 30.2889C25.6646 31.9519 28.0276 32.5027 29.6753 33.0592L28.2573 35.1367C27.589 36.0944 26.9374 37.0628 26.3005 38.0414C22.3428 36.7202 18.8865 34.8135 18.6903 30.1902C18.4283 24.0364 23.1838 21.2642 28.6665 20.9051Z" fill="white" fill-opacity="0.85"/>
<path d="M37.2825 23.1674C37.9528 23.4729 38.9361 24.2811 39.5042 24.7537C38.9743 25.6118 37.2442 28.5917 36.7281 29.2134C35.9646 28.6128 35.156 28.0728 34.3091 27.598C35.2806 26.2958 36.4082 24.5472 37.2825 23.1674Z" fill="white" fill-opacity="0.85"/>
</svg>
